HIERARCHY
ROOT Hips
{
 OFFSET 0.000000 0.000000 0.000000
 CHANNELS 6 Xposition Yposition Zposition Yrotation Xrotation Zrotation
 JOINT Chest
 {
  OFFSET 0.000000 10.383400 0.001500
  CHANNELS 3 Yrotation Xrotation Zrotation
  JOINT Chest2
  {
   OFFSET 0.000000 10.418200 -0.003100
   CHANNELS 3 Yrotation Xrotation Zrotation
   JOINT Chest3
   {
    OFFSET 0.000000 10.375100 0.000000
    CHANNELS 3 Yrotation Xrotation Zrotation
    JOINT Chest4
    {
     OFFSET 0.000000 10.364600 0.000000
     CHANNELS 3 Yrotation Xrotation Zrotation
     JOINT Neck
     {
      OFFSET 0.000000 15.642200 0.000000
      CHANNELS 3 Yrotation Xrotation Zrotation
      JOINT Head
      {
       OFFSET 0.000000 9.697300 -0.006500
       CHANNELS 3 Yrotation Xrotation Zrotation
       End Site
       {
        OFFSET 0.000000 18.492200 -0.003400
       }
      }
     }
     JOINT RightCollar
     {
      OFFSET -3.166800 10.349300 0.000000
      CHANNELS 3 Yrotation Xrotation Zrotation
      JOINT RightShoulder
      {
       OFFSET -14.729700 0.000000 0.000000
       CHANNELS 3 Yrotation Xrotation Zrotation
       JOINT RightElbow
       {
        OFFSET 0.000000 -32.224300 0.000000
        CHANNELS 3 Yrotation Xrotation Zrotation
        JOINT RightWrist
        {
         OFFSET 0.000000 -26.084100 0.000000
         CHANNELS 3 Yrotation Xrotation Zrotation
         End Site
         {
          OFFSET 0.000000 -19.319400 0.000000
         }
        }
       }
      }
     }
     JOINT LeftCollar
     {
      OFFSET 3.166800 10.349300 0.000000
      CHANNELS 3 Yrotation Xrotation Zrotation
      JOINT LeftShoulder
      {
       OFFSET 14.729700 0.000000 0.000000
       CHANNELS 3 Yrotation Xrotation Zrotation
       JOINT LeftElbow
       {
        OFFSET 0.000000 -32.224300 0.000000
        CHANNELS 3 Yrotation Xrotation Zrotation
        JOINT LeftWrist
        {
         OFFSET 0.000000 -26.084100 0.000000
         CHANNELS 3 Yrotation Xrotation Zrotation
         End Site
         {
          OFFSET 0.000000 -19.319400 0.000000
         }
        }
       }
      }
     }
    }
   }
  }
 }
 JOINT RightHip
 {
  OFFSET -8.428900 -0.007500 -0.000800
  CHANNELS 3 Yrotation Xrotation Zrotation
  JOINT RightKnee
  {
   OFFSET 0.000000 -43.834600 0.000700
   CHANNELS 3 Yrotation Xrotation Zrotation
   JOINT RightAnkle
   {
    OFFSET 0.000000 -42.757000 0.001200
    CHANNELS 3 Yrotation Xrotation Zrotation
    JOINT RightToe
    {
     OFFSET 0.000000 -6.946900 15.649300
     CHANNELS 3 Yrotation Xrotation Zrotation
     End Site
     {
      OFFSET 0.000000 -1.580800 6.825800
     }
    }
   }
  }
 }
 JOINT LeftHip
 {
  OFFSET 8.428900 -0.007500 -0.000800
  CHANNELS 3 Yrotation Xrotation Zrotation
  JOINT LeftKnee
  {
   OFFSET 0.000000 -43.834600 0.000700
   CHANNELS 3 Yrotation Xrotation Zrotation
   JOINT LeftAnkle
   {
    OFFSET 0.000000 -42.757000 0.001200
    CHANNELS 3 Yrotation Xrotation Zrotation
    JOINT LeftToe
    {
     OFFSET 0.000000 -6.946900 15.649300
     CHANNELS 3 Yrotation Xrotation Zrotation
     End Site
     {
      OFFSET 0.000000 -1.580800 6.825800
     }
    }
   }
  }
 }
}
MOTION
Frames: 16
Frame Time: 0.008333
-3.409073 126.299015 0.645197 173.725099 -17.629948 -2.438443 -1.889450 17.038792 2.337031 -0.228333 1.780477 0.280695 -0.384447 3.021498 0.444219 -1.683147 14.930589 2.093186 -4.499557 10.366612 0.916139 -5.084886 -14.742027 2.051278 2.526619 0.379149 -1.659531 12.183250 -8.663291 -12.109296 135.746082 -71.451397 -110.713320 15.491798 -13.343101 -67.841194 -7.023961 1.473497 -0.539264 2.670678 -15.052634 9.318154 107.573401 -67.723967 -140.206802 -8.989697 7.567283 11.220429 4.680627 -52.776836 8.593026 -85.183073 82.097941 -82.788469 -1.426120 -14.453161 2.511156 -0.001292 -0.006507 -0.000573 2.168579 -53.448235 -4.279419 103.559676 79.509850 108.641677 8.468410 -13.763330 -9.044522 0.000373 -0.001414 0.000166
-3.409308 126.296440 0.646568 173.724993 -17.588083 -2.439309 -1.892382 17.019372 2.334097 -0.230229 1.792911 0.274937 -0.380060 2.992944 0.452441 -1.690357 14.948699 2.080393 -4.486969 10.351051 0.933229 -5.063257 -14.763769 2.078074 2.533687 0.365072 -1.653821 12.184246 -8.665525 -12.106566 135.598807 -71.374699 -110.614443 15.448163 -13.080920 -67.462633 -7.016599 1.467093 -0.527963 2.663045 -15.044016 9.307474 108.006153 -67.794517 -140.547735 -9.115273 7.662757 11.112672 4.689182 -52.820810 8.589313 -85.216979 82.093093 -82.820511 -1.427094 -14.453511 2.511745 0.000106 -0.005114 0.000047 2.175360 -53.494926 -4.290687 103.582687 79.505057 108.670692 8.467895 -13.755800 -9.046295 -0.002299 -0.001405 -0.001020
-3.409120 126.295275 0.643877 173.721670 -17.572004 -2.439069 -1.891913 17.025559 2.330836 -0.227747 1.781128 0.277237 -0.381171 3.003717 0.450347 -1.690827 14.949433 2.077721 -4.473788 10.336709 0.946418 -5.047417 -14.778383 2.092449 2.533853 0.353349 -1.654474 12.176839 -8.638598 -12.105398 135.547679 -71.290905 -110.614627 15.422049 -12.806748 -67.057788 -7.014124 1.479760 -0.530014 2.654764 -15.028124 9.281614 108.523202 -67.879553 -140.970925 -9.236146 7.762418 10.985390 4.707896 -52.839068 8.581283 -85.253177 82.096057 -82.851805 -1.433136 -14.455388 2.514641 0.000517 -0.006590 0.000229 2.178768 -53.512888 -4.292689 103.618282 79.495034 108.707569 8.468989 -13.746092 -9.049616 0.000511 0.001427 0.000227
-3.409189 126.293974 0.641900 173.721249 -17.553704 -2.438955 -1.893102 17.029577 2.327340 -0.230381 1.783076 0.275954 -0.384214 3.028684 0.445258 -1.693606 14.949355 2.073206 -4.451575 10.301181 0.967728 -5.027983 -14.792585 2.101159 2.530689 0.347264 -1.666828 12.182947 -8.643260 -12.094246 135.538984 -71.219335 -110.660125 15.417787 -12.536957 -66.637669 -6.998096 1.470604 -0.519642 2.656006 -14.980470 9.227458 109.130325 -67.974813 -141.501911 -9.350174 7.854431 10.854857 4.718538 -52.857381 8.573110 -85.263215 82.099541 -82.859677 -1.434497 -14.458195 2.516356 -0.000236 -0.007304 -0.000105 2.179485 -53.532538 -4.294783 103.657540 79.492993 108.745650 8.473544 -13.745947 -9.048627 0.000906 0.001095 0.000402
-3.409251 126.292645 0.640292 173.724183 -17.535401 -2.440507 -1.893882 17.033020 2.324293 -0.233434 1.800883 0.274008 -0.381764 3.012456 0.446320 -1.693332 14.933131 2.078134 -4.429278 10.320627 0.975209 -5.019013 -14.815542 2.110415 2.525842 0.360211 -1.679198 12.168413 -8.624447 -12.085756 135.588682 -71.163459 -110.743094 15.443430 -12.280291 -66.225127 -7.001448 1.519890 -0.528662 2.672665 -14.989622 9.200301 109.595629 -68.054021 -141.907040 -9.453392 7.932220 10.730507 4.726178 -52.875629 8.565535 -85.271367 82.100535 -82.864069 -1.436135 -14.461381 2.517120 0.000036 -0.008192 0.000016 2.183488 -53.550358 -4.303148 103.662080 79.488906 108.750495 8.489088 -13.744093 -9.044831 0.002111 0.002188 0.000937
-3.409693 126.291296 0.638899 173.728320 -17.517790 -2.440932 -1.893959 17.035923 2.317675 -0.236446 1.786056 0.280647 -0.381190 3.018228 0.443730 -1.698341 14.945848 2.072980 -4.410868 10.309947 0.984730 -4.996819 -14.816583 2.118546 2.526231 0.350211 -1.682642 12.157310 -8.602941 -12.081898 135.672683 -71.129976 -110.838364 15.507858 -12.036561 -65.850215 -6.995763 1.505428 -0.518730 2.694517 -14.941388 9.157567 110.054647 -68.127596 -142.317605 -9.548811 7.998014 10.609743 4.732136 -52.893109 8.557261 -85.281566 82.103480 -82.873149 -1.439680 -14.465662 2.519444 -0.000240 -0.009018 -0.000107 2.183810 -53.567241 -4.308124 103.648104 79.487413 108.732079 8.491622 -13.740490 -9.033644 -0.000218 0.003925 -0.000097
-3.409925 126.289947 0.637802 173.731185 -17.500929 -2.442702 -1.892213 17.038648 2.311608 -0.236272 1.787774 0.280872 -0.382710 3.008349 0.447909 -1.698411 14.960725 2.063475 -4.402909 10.289628 1.001368 -4.983511 -14.813274 2.121521 2.525024 0.328015 -1.672324 12.137265 -8.546922 -12.088019 135.719799 -70.974855 -110.954088 15.463079 -11.815143 -65.451299 -6.991686 1.512231 -0.507687 2.699457 -14.951364 9.146822 110.381001 -68.182964 -142.586979 -9.640252 8.059124 10.492538 4.732145 -52.909061 8.554371 -85.285363 82.114026 -82.878410 -1.447451 -14.474144 2.517442 -0.001371 -0.010243 -0.000609 2.180958 -53.584065 -4.308907 103.628461 79.492791 108.710544 8.501399 -13.732672 -9.029468 -0.000366 0.004511 -0.000163
-3.409381 126.288739 0.636716 173.733389 -17.486848 -2.448712 -1.891003 17.034502 2.313860 -0.233120 1.798084 0.275256 -0.381735 3.009818 0.447423 -1.693444 14.964184 2.061028 -4.386678 10.288319 1.015137 -4.986330 -14.824811 2.132163 2.511427 0.318951 -1.669535 12.132886 -8.523720 -12.085823 135.757539 -70.847470 -111.037244 15.447376 -11.587561 -65.091491 -6.998219 1.519989 -0.493813 2.709279 -14.961994 9.135038 110.668716 -68.230807 -142.826985 -9.721792 8.120880 10.380315 4.723939 -52.919828 8.562088 -85.266450 82.115227 -82.860385 -1.446095 -14.484811 2.508992 -0.001001 -0.010771 -0.000444 2.175682 -53.599767 -4.304122 103.628804 79.493314 108.714467 8.505942 -13.729038 -9.031982 0.001834 0.004170 0.000814
-3.409258 126.287619 0.635536 173.740348 -17.475057 -2.453682 -1.895605 17.032933 2.313744 -0.231807 1.808953 0.270901 -0.381275 3.011402 0.446860 -1.694831 14.988733 2.049152 -4.355501 10.306862 1.033561 -4.955375 -14.805164 2.143974 2.514135 0.291120 -1.667439 12.127437 -8.516662 -12.085654 135.807491 -70.771354 -111.122098 15.460411 -11.368863 -64.729231 -6.993543 1.504494 -0.470313 2.728774 -14.960235 9.107778 110.934526 -68.276567 -143.069870 -9.763507 8.169161 10.294206 4.713318 -52.927030 8.566646 -85.252999 82.120037 -82.845871 -1.450887 -14.494488 2.502710 0.001014 -0.008788 0.000450 2.167473 -53.615011 -4.297455 103.625224 79.488691 108.705674 8.497817 -13.725034 -9.023506 0.000374 0.002934 0.000166
-3.409698 126.286604 0.634192 173.745425 -17.466003 -2.454541 -1.895655 17.039233 2.309380 -0.233330 1.825587 0.266558 -0.380897 2.997078 0.451101 -1.701499 14.992592 2.046157 -4.339817 10.322531 1.039881 -4.938791 -14.788717 2.146561 2.520239 0.289699 -1.681848 12.126678 -8.514705 -12.086054 135.875082 -70.744007 -111.211151 15.489441 -11.167282 -64.329560 -6.984062 1.539819 -0.479634 2.730008 -14.988565 9.102932 111.092261 -68.300772 -143.219513 -9.843601 8.229561 10.191735 4.709454 -52.933852 8.565223 -85.269050 82.122043 -82.865492 -1.449887 -14.503858 2.502838 -0.000476 -0.008471 -0.000211 2.166301 -53.626087 -4.297670 103.610072 79.488551 108.690015 8.490655 -13.719125 -9.019426 0.001148 0.001236 0.000510
-3.411069 126.285768 0.632373 173.748889 -17.460956 -2.449002 -1.900910 17.063994 2.293345 -0.232704 1.803854 0.273532 -0.381474 3.005908 0.449520 -1.705058 14.993019 2.042240 -4.328616 10.325045 1.046025 -4.930202 -14.780006 2.147679 2.524115 0.293479 -1.696352 12.128844 -8.527611 -12.079292 135.858681 -70.658893 -111.242789 15.407922 -10.974677 -63.813081 -6.972176 1.550976 -0.485987 2.729700 -14.991583 9.099991 111.220917 -68.318759 -143.344965 -9.940815 8.300884 10.060393 4.714784 -52.935796 8.555344 -85.320396 82.122628 -82.920846 -1.450856 -14.530168 2.503347 -0.002409 -0.011615 -0.001069 2.173192 -53.632283 -4.306742 103.591981 79.490253 108.671277 8.466638 -13.716555 -9.004497 -0.003075 -0.002144 -0.001365
-3.410669 126.284939 0.631235 173.754601 -17.454619 -2.453663 -1.903310 17.072695 2.290972 -0.235201 1.797573 0.276562 -0.383604 3.016752 0.445441 -1.701850 14.980063 2.047190 -4.323407 10.339430 1.045941 -4.921340 -14.771067 2.148778 2.516781 0.323618 -1.726974 12.142994 -8.536282 -12.082169 135.949384 -70.588021 -111.399898 15.306948 -10.770586 -63.201544 -6.967649 1.571877 -0.500670 2.720793 -14.997835 9.101860 111.347414 -68.342396 -143.453310 -10.011537 8.345469 9.950295 4.703603 -52.935895 8.565791 -85.310461 82.118202 -82.914003 -1.451859 -14.541747 2.504478 -0.002022 -0.007518 -0.000897 2.167203 -53.637616 -4.301894 103.572152 79.495926 108.652299 8.473499 -13.713713 -9.005790 -0.001166 -0.000938 -0.000518
-3.411650 126.283835 0.631004 173.764867 -17.442934 -2.451999 -1.912723 17.068458 2.284063 -0.236951 1.806732 0.271740 -0.384465 3.019550 0.444108 -1.705405 14.986913 2.039377 -4.309439 10.357254 1.054551 -4.892710 -14.694966 2.144386 2.526481 0.318019 -1.723484 12.143767 -8.525264 -12.106548 136.127649 -70.539931 -111.633387 15.212389 -10.531458 -62.526173 -6.961198 1.568426 -0.495398 2.694386 -14.975085 9.098871 111.538494 -68.357681 -143.612516 -10.103919 8.380215 9.854264 4.695465 -52.942554 8.564926 -85.319194 82.113572 -82.926750 -1.451601 -14.557879 2.499178 -0.000848 -0.006843 -0.000377 2.170375 -53.646729 -4.314057 103.545848 79.500776 108.630671 8.462778 -13.714176 -8.996471 -0.001974 0.000438 -0.000876
-3.410925 126.283076 0.630316 173.766938 -17.435997 -2.456248 -1.910043 17.068794 2.286767 -0.233750 1.815455 0.268713 -0.381024 3.037211 0.435807 -1.706149 14.977218 2.042300 -4.303190 10.374789 1.060942 -4.893183 -14.677075 2.150885 2.525446 0.304150 -1.714434 12.135029 -8.515287 -12.134333 136.346317 -70.513743 -111.883238 15.148548 -10.258650 -61.845037 -6.965747 1.553410 -0.482936 2.675741 -14.965320 9.103814 111.792970 -68.379324 -143.818641 -10.169175 8.420945 9.757576 4.685923 -52.946712 8.577833 -85.310566 82.107434 -82.919779 -1.451574 -14.567174 2.493843 -0.000152 -0.007099 -0.000067 2.164573 -53.652720 -4.309894 103.531270 79.501616 108.615818 8.485621 -13.713721 -9.000337 0.002605 0.000161 0.001156
-3.410426 126.282425 0.629461 173.767781 -17.430178 -2.457951 -1.905674 17.074879 2.282936 -0.231491 1.833255 0.263771 -0.385127 3.020229 0.443680 -1.701538 15.006165 2.024270 -4.299044 10.411670 1.071501 -4.897596 -14.694864 2.168976 2.534470 0.287828 -1.700855 12.117786 -8.533634 -12.147780 136.539390 -70.490559 -112.094911 15.129171 -9.955011 -61.211663 -6.973642 1.540820 -0.476066 2.665579 -14.984753 9.126909 112.044713 -68.404882 -144.032279 -10.244569 8.454901 9.679066 4.681516 -52.948077 8.587409 -85.282440 82.099938 -82.892624 -1.454197 -14.574439 2.489124 0.000833 -0.004994 0.000370 2.162545 -53.657213 -4.306982 103.519237 79.502180 108.600932 8.489472 -13.715212 -8.997407 0.002033 0.000625 0.000902
-3.409835 126.282019 0.628086 173.768596 -17.427481 -2.458906 -1.904641 17.087565 2.280559 -0.226558 1.835093 0.262192 -0.384476 3.022415 0.442747 -1.698294 15.011664 2.019166 -4.301020 10.428928 1.078152 -4.900796 -14.676657 2.176430 2.542046 0.288825 -1.696454 12.097998 -8.553862 -12.164002 136.656470 -70.451815 -112.228836 15.121115 -9.646918 -60.650815 -6.996248 1.576624 -0.502467 2.645373 -15.028792 9.180063 112.339393 -68.428190 -144.272062 -10.319968 8.477761 9.599820 4.676659 -52.948144 8.594267 -85.279998 82.094936 -82.891983 -1.450638 -14.582244 2.487726 0.000783 -0.005007 0.000347 2.164912 -53.658334 -4.306650 103.499561 79.501097 108.581391 8.488922 -13.716027 -8.994104 0.003753 -0.000264 0.001666
